<?xml version="1.0" encoding="UTF-8" standalone="no"?>
<!-- Created with Inkscape (http://www.inkscape.org/) -->

<svg
   width="540"
   height="540"
   viewBox="0 0 142.875 142.875"
   version="1.1"
   id="svg1"
   inkscape:version="1.3.2 (091e20e, 2023-11-25, custom)"
   sodipodi:docname="dislike404com-logo.svg"
   inkscape:export-filename="dislike404com-logo_solid.png"
   inkscape:export-xdpi="96"
   inkscape:export-ydpi="96"
   xmlns:inkscape="http://www.inkscape.org/namespaces/inkscape"
   xmlns:sodipodi="http://sodipodi.sourceforge.net/DTD/sodipodi-0.dtd"
   xmlns="http://www.w3.org/2000/svg"
   xmlns:svg="http://www.w3.org/2000/svg">
  <sodipodi:namedview
     id="namedview1"
     pagecolor="#ffffff"
     bordercolor="#000000"
     borderopacity="0.25"
     inkscape:showpageshadow="2"
     inkscape:pageopacity="0.0"
     inkscape:pagecheckerboard="0"
     inkscape:deskcolor="#d1d1d1"
     inkscape:document-units="mm"
     inkscape:zoom="0.36945286"
     inkscape:cx="-144.80873"
     inkscape:cy="125.86179"
     inkscape:window-width="2560"
     inkscape:window-height="1369"
     inkscape:window-x="-8"
     inkscape:window-y="-8"
     inkscape:window-maximized="1"
     inkscape:current-layer="layer1"
     inkscape:export-bgcolor="#ffffffff" />
  <defs
     id="defs1" />
  <g
     inkscape:label="Ebene 1"
     inkscape:groupmode="layer"
     id="layer1"
     transform="translate(-30.691699,-15.345833)">
    <path
       d="m 95.422378,33.230736 c -8.259908,1.267656 -17.55151,4.524796 -22.128689,9.964389 l -1.611103,1.914661 1.875615,1.862642 c 2.150082,2.135211 1.516245,2.152446 5.513373,-0.150072 26.230316,-15.109543 61.668546,-1.286482 72.619786,28.325951 0.21573,0.583319 0.64078,1.715221 0.94462,2.515164 0.30384,0.799942 0.54509,1.678466 0.68791,1.921724 0.98668,1.680625 -0.7041,-4.873881 -0.84891,-5.20899 C 152.33695,71.67597 148.67834,63.110732 145.78254,58.709328 135.1581,42.561213 114.08586,30.45503 96.534846,33.148901 M 57.357431,60.136073 c -5.435857,6.203044 -8.244664,17.538533 -7.185804,27.568432 l 0.04245,3.35249 0.194637,-3.181738 c 0.387137,-6.325028 2.626393,-12.778919 7.381507,-21.275484 1.272748,-2.273882 1.072504,-2.321873 4.598391,1.102737 3.699166,3.592977 3.804175,4.37295 5.040613,2.409022 l 0.540576,-2.440574 -4.738563,-4.700223 -4.738563,-4.700487 -1.135246,1.865825 m 41.429377,11.757202 c -0.06675,0.06629 1.484434,2.116662 3.335224,4.004493 1.68571,1.990124 3.18169,3.072456 2.83194,2.657504 -0.80151,-0.660709 -0.14922,-1.034714 2.28442,-0.445032 0.86426,0.209464 3.19217,1.672798 3.87326,2.434825 0.85279,0.95399 2.05875,1.045924 1.88574,-0.793385 -0.49633,-5.277708 -7.7738,-10.525136 -12.45502,-8.380255 m 33.27686,6.214029 c -4.15227,6.822972 -8.38822,14.274135 -8.39303,14.465835 -0.0245,0.964597 5.41408,1.288064 5.99853,0.245514 0.34736,-0.619643 1.5013,-2.598674 1.7448,-2.963248 0.2435,-0.364575 1.00523,-1.530152 1.69247,-2.5902 l 1.36633,-2.028605 0.13186,-5.130306 -0.42197,-5.520903 M 70.382334,75.280879 C 68.63972,77.41228 60.522849,90.160886 60.1031,91.563863 c -0.31692,0.596575 -0.909459,0.686284 2.947386,0.686284 h 3.061057 l 2.426952,-3.645741 2.426685,-3.645741 0.175395,-5.129408 c 0.922225,-4.844395 0.0076,-6.218364 -0.408623,-5.58997 m 6.15729,7.802438 5.279166,4.965448 c 6.01211,5.776976 6.720931,6.446063 6.193983,3.429219 l -0.587166,-3.361607 -5.339826,-5.297857 -5.339828,-5.29786 m 16.619485,19.061764 c 0.01388,4.687758 6.352074,9.562578 9.934844,8.012558 0.26646,-0.11535 0.39846,-0.49249 0.54531,-0.46306 0.24323,0.0488 -1.0752,-2.43425 -7.66531,-7.93984 l -2.346888,-1.960669 -0.467956,1.962293 m 52.025024,2.989816 -3.36491,0.07398 -0.21611,3.69157 c -0.0169,2.04161 -0.16593,3.50224 -0.10452,3.12095 0.11187,-0.69334 0.4827,-0.77517 3.63027,-0.90377 5.3177,-0.21769 7.8536,-3.55135 4.18458,-5.501222 -0.69471,-0.369347 -2.93034,-0.908532 -2.20869,-1.656771 m -64.869905,0.526076 c -0.222,-0.242465 -0.927319,0.420582 -2.571719,0.425353 l -2.990037,0.297815 -0.07529,2.952909 -0.219235,3.21889 3.247184,0.0223 c 4.676888,0.0641 5.700532,-0.66337 5.716018,-2.93672 0.0091,-1.32148 -1.324836,-3.864823 -2.195494,-3.864823 m -28.591528,0.918289 c -1.289569,0.670816 -1.271413,2.752734 0.03738,4.309664 0.919251,1.09346 2.559111,1.30318 10.383293,1.32864 5.122497,0.0167 5.452117,-0.0652 5.563719,0.7966 0.0614,0.47407 0.235588,-0.79293 0.220104,-2.87987 l -0.173441,-4.286089 -7.824541,-0.07768 c -5.627253,-0.756174 -7.647165,0.517613 -8.206512,0.808743 m 70.942404,0.115868 c 0.16634,0.234919 1.50397,1.547388 2.97244,2.916598 l 2.50511,2.63318 2.3675,-0.2201 2.3881,-0.0874 -0.18541,-2.75205 v -2.762553 l -5.11332,-0.291976 c -4.70571,-0.268701 -5.45718,-0.284481 -5.18163,0.103955 m -33.483823,7.433344 c 0.363818,0.68982 0.594873,1.47131 0.781767,1.94327 1.858794,4.69201 8.629426,7.64758 14.142026,6.17337 1.52213,-0.40699 1.3638,-0.53771 11.72232,9.67673 l 8.63214,8.51193 1.73359,-1.1889 1.73385,-1.18864 -10.89998,-10.80652 -10.85455,-10.98618 -2.46646,0.74686 m 32.47427,0.45363 c -1.30977,0.17565 -0.55989,-0.28227 -1.7466,-1.09001 -1.43518,-1.2507 -0.44941,0.84672 -0.30765,1.23054 0.3359,0.62899 0.85999,1.2186 2.03476,2.37834 2.79034,2.75486 2.99646,2.63023 2.87284,-1.73882 -0.047,-1.66697 -0.32765,-2.88353 -0.35888,-2.65365 m -66.230401,-0.13999 c -0.253108,0.7912 -1.494359,1.61042 -2.817835,1.50569 -0.09987,-0.26234 -0.941559,-0.2295 -0.860394,0.19022 -0.504779,3.19382 2.317098,4.13536 3.814654,2.6479 0.699784,-0.69468 0.962504,-3.10644 0.377525,-3.46544"
       stroke="none"
       fill="#fdb7a0"
       fill-rule="evenodd"
       id="path1"
       sodipodi:nodetypes="cscscssscccccccccccccccccccccccssccccccscccccccscccccssccccccccccccccccccccscccccccccccscccccccccccccccccccccc"
       style="display:inline;fill:#fdb7a0;fill-opacity:1;stroke-width:0.266066" />
    <path
       d="M 95.651468,15.653787 C 60.552782,18.926204 31.871511,49.134153 30.730923,84.030658 28.986135,137.40139 85.79148,174.51186 133.29742,151.03621 c 13.01964,-6.43375 26.24246,-19.63956 32.18091,-32.13901 2.98551,-6.28419 3.5211,-7.572 4.79332,-11.52054 C 185.52542,60.030015 145.63249,10.994132 95.651468,15.653787 m -0.533982,5.569102 c -39.322704,6.770246 -64.179547,41.019889 -57.497653,78.583885 0.926994,4.387086 1.424666,6.020636 3.230061,10.605786 16.481638,41.85895 66.711026,55.69951 101.124786,28.09846 36.51773,-32.67554 32.69396,-87.873387 -11.17685,-110.948784 -10.76595,-5.36388 -24.99186,-7.891506 -35.680344,-6.339347 m 0.470171,8.602093 c -16.346009,2.366682 -31.436098,11.294639 -29.044389,16.979079 0.358035,0.851115 24.329857,24.708315 44.593752,44.38153 3.37746,3.279046 11.78773,11.531149 18.68949,18.337949 14.24914,14.05347 13.82329,13.73529 16.59922,12.40081 2.74335,-1.31881 9.63363,-13.64275 11.28685,-20.48137 C 164.9641,71.444234 149.71534,43.59687 120.32585,32.498437 113.31007,29.84911 103.06716,28.74213 95.587657,29.824982 m 2.333237,5.198163 c -8.250031,0.772632 -20.480637,5.320662 -25.315319,9.413969 l -0.885611,0.749829 11.402671,11.301532 11.402396,11.301798 0.917116,-0.618052 c 6.775703,-4.566324 17.485593,-1.390419 21.226973,6.294538 1.44335,2.964319 1.60382,3.975316 1.78136,11.222253 l 0.16234,6.624113 0.83808,-1.321216 c 0.4611,-0.726762 3.69279,-5.91485 7.18185,-11.529292 9.12287,-14.680272 8.83292,-14.314903 11.36428,-14.316759 3.99074,-0.0032 4.24465,0.943385 4.24465,15.831266 v 12.273023 h 2.91956 c 7.69768,0 8.27812,5.723682 0.59727,5.891783 l -3.38334,0.07398 -0.13349,4.59734 c -0.14605,5.03218 -0.34282,5.55187 -2.28386,6.03576 -2.90648,0.72438 -3.70479,-0.5303 -3.80758,-5.98565 l -0.0839,-4.458667 -4.89479,-0.191964 c -2.69182,-0.105528 -5.05711,-0.130982 -5.25575,-0.05674 -0.22588,0.08432 1.88791,2.295351 5.64609,5.905561 3.30404,3.17405 7.45738,7.24376 9.22941,9.04383 3.79744,3.85706 3.47332,3.77089 5.08515,1.35065 C 169.14329,79.516304 139.90838,31.092375 97.920843,35.023147 M 56.019487,52.412141 c -1.788309,1.644428 -6.614443,10.353375 -8.319182,15.365142 -1.251923,3.680475 -1.89991,6.317075 -2.690738,10.950481 -0.465366,2.725159 -0.460026,12.992096 0.0083,15.908688 1.28494,9.435448 3.354953,14.751888 8.480977,22.449808 16.776669,24.89922 48.184196,33.68639 75.027656,20.45274 10.16734,-5.0123 10.91306,-7.8345 2.34259,-16.10172 C 124.1134,114.92056 92.071115,83.499838 75.282699,66.929348 67.156814,58.908718 59.711759,52.201615 59.390569,52.024231 58.337288,51.442769 56.8934,51.608749 56.019538,52.412139 m 1.517577,7.396479 C 29.825555,105.49626 86.051797,160.88951 129.45085,130.65716 l 1.6097,-1.12103 -10.90612,-10.83063 -10.90612,-10.83064 -1.85907,0.70449 c -6.77841,2.56819 -15.021498,-0.52259 -18.093232,-6.78399 -1.246583,-2.541148 -1.516244,-4.330345 -1.518647,-10.077889 l -0.0021,-4.642686 -5.339826,-5.297857 -5.339828,-5.29786 v 7.885407 7.885672 h 3.167835 c 4.218197,0 5.664223,1.090806 4.882205,3.682597 -0.537721,1.782568 -1.012164,2.001048 -4.672616,2.15059 l -3.243946,0.132571 -0.137234,4.507465 c -0.169272,5.56406 -0.516895,6.2309 -3.247951,6.2309 -2.350058,0 -2.889114,-1.23452 -2.889114,-6.61536 v -4.255576 h -7.622605 c -12.503525,0 -12.850964,-3.099646 -5.599075,-13.920103 1.440685,-2.333275 3.523751,-5.733758 4.629095,-7.556628 1.105611,-1.822871 2.749744,-4.447804 3.654045,-5.833185 0.9043,-1.385382 1.718089,-2.645881 1.808333,-2.801255 0.08998,-0.155375 -1.975737,-2.405129 -4.590918,-4.999306 l -4.755115,-4.716395 -0.941412,1.552156 m 42.712736,11.907919 -1.275677,0.402755 1.119227,1.318301 c 4.01396,4.727001 12.11159,11.787277 12.1949,10.632306 0.62181,-8.598116 -5.15644,-14.527549 -12.03845,-12.353362 m 34.93975,3.894713 c -0.42773,0.766269 -1.10162,1.870331 -1.49757,2.45365 -1.14459,1.686587 -8.27089,13.717267 -8.27089,13.963056 0,0.122231 2.43283,0.222191 5.4066,0.222456 l 5.4066,2.65e-4 -0.0689,-6.695171 c -0.0379,-3.682332 -0.098,-7.739578 -0.13349,-9.01625 l -0.0646,-2.321078 -0.77775,1.393072 M 70.487266,75.082021 C 69.935127,75.770602 60.00812,91.922428 60.00812,92.132158 c 0,0.06496 2.462994,0.117989 5.473323,0.117989 h 5.473324 v -8.749779 c 0,-4.812378 -0.04539,-8.749779 -0.100922,-8.749779 -0.05527,0 -0.220269,0.149278 -0.366579,0.331432 m 23.554245,18.828993 c -1.067699,4.224552 3.644164,9.488476 8.478319,9.471236 2.07934,-0.007 1.99017,-0.2259 -1.469,-3.588733 -7.082208,-6.885015 -6.813081,-6.659111 -7.009319,-5.882503"
       stroke="none"
       fill="#073145"
       fill-rule="evenodd"
       id="path3"
       style="display:inline;stroke-width:0.266066"
       sodipodi:nodetypes="ccccccccccccccccsccccccccsccccccscscccccccccccccccccccccccccccccccccccsccccsscsccscccccccccccscccccccsscssccssc" />
    <path
       d="m 95.117486,20.692599 c -39.847126,5.78652 -65.995453,41.434446 -58.031635,79.114175 0.926993,4.387086 1.424665,6.020636 3.23006,10.605786 16.481638,41.85895 67.778999,56.2298 102.192759,28.62875 39.08157,-31.34462 32.97574,-89.744092 -11.71084,-112.009364 -10.76595,-5.363878 -24.99186,-7.891505 -35.680344,-6.339347 m 0.470171,9.662672 c -16.346009,2.366683 -30.902115,10.76435 -28.510406,16.44879 0.358035,0.851115 23.795874,24.178026 44.059769,43.85124 3.37746,3.279046 11.78773,11.531149 18.68949,18.337939 14.24914,14.05348 13.82329,13.73531 16.59922,12.40083 2.74335,-1.31883 9.09964,-13.11247 10.75286,-19.95109 C 164.43011,71.444234 149.71534,44.127159 120.32585,33.028727 113.31007,30.3794 103.06716,29.272419 95.587657,30.355271 M 56.019538,52.942429 c -1.788309,1.644427 -6.08046,9.823085 -7.7852,14.834852 -1.251922,3.680475 -1.89991,6.317075 -2.690738,10.950481 -0.465365,2.725159 -0.460026,12.992096 0.0083,15.908688 1.072266,8.15712 4.058749,15.56498 8.480978,22.44981 16.776669,24.89922 47.650222,33.1561 74.493682,19.92244 10.16734,-5.01229 10.37907,-6.7739 1.80861,-15.04113 C 123.57942,115.45084 91.537132,84.030128 74.748716,67.459638 66.622831,59.439007 59.711759,52.731903 59.390569,52.554522 58.337288,51.973059 56.8934,52.13904 56.019538,52.942429"
       stroke="none"
       fill="#fe552f"
       fill-rule="evenodd"
       id="path4"
       sodipodi:nodetypes="ccccccccscsccccsccccsccc"
       style="display:inline;stroke-width:0.266066" />
  </g>
</svg>
